# xmcd
#
# Track frame offsets: 
#        150
#        15238
#        37139
#        55314
#        73751
#        88687
#        107574
#        128953
#        147103
#        166465
#        185051
#        212787
#
# Disc length: 3000 seconds
#
# Revision: 12
# Processed by: cddbd v1.5.2PL0 Copyright (c) Steve Scherf et al.
# Submitted via: ExactAudioCopy v1.0b3
#
DISCID=ae0bb60c
DTITLE=John Mayer - Continuum
DYEAR=2006
DGENRE=Pop
TTITLE0=Waiting On The World To Change
TTITLE1=I Don't Trust Myself (With Loving You)
TTITLE2=Belief
TTITLE3=Gravity
TTITLE4=The Heart Of Life
TTITLE5=Vultures
TTITLE6=Stop This Train
TTITLE7=Slow Dancing In A Burning Room
TTITLE8=Bold As Love
TTITLE9=Dreaming With A Broken Heart
TTITLE10=In Repair
TTITLE11=I'm Gonna Find Another You
EXTD=Recorded 2005/2006 at The Village Recorder (Los Angeles US-CA), A
EXTD=S-NY), and Royal Studios (Memphis US-TN).\nProduced by John Mayer
EXTD=and Steve Jordan.\nCD: Aware/Columbia 79019 (2006-09-12), UPC 82
EXTD=8767901923.
EXTT0=(John Mayer)
EXTT1=(John Mayer)
EXTT2=(John Mayer)
EXTT3=(John Mayer)
EXTT4=(John Mayer)
EXTT5=(John Mayer/Pino Palladino/Steve Jordan)
EXTT6=(John Mayer)
EXTT7=(John Mayer)
EXTT8=(Jimi Hendrix)
EXTT9=(John Mayer)
EXTT10=(John Mayer/Charlie Hunter)
EXTT11=(John Mayer)
PLAYORDER=
